<?xml version="1.0" standalone="no"?>
<!DOCTYPE svg PUBLIC "-//W3C//DTD SVG 20010904//EN"
 "http://www.w3.org/TR/2001/REC-SVG-20010904/DTD/svg10.dtd">
<svg version="1.0" xmlns="http://www.w3.org/2000/svg"
 width="1024.000000pt" height="1024.000000pt" viewBox="0 0 1024.000000 1024.000000"
 preserveAspectRatio="xMidYMid meet">

<g transform="translate(0.000000,1024.000000) scale(0.100000,-0.100000)"
fill="#000000" stroke="none">
<path d="M4960 8918 c-63 -39 -212 -122 -330 -186 -271 -145 -637 -349 -1418
-791 -117 -66 -221 -122 -230 -125 -16 -5 -17 -84 -14 -1182 l2 -1176 83 -40
c45 -22 150 -79 232 -128 83 -48 330 -190 550 -315 220 -125 447 -255 505
-290 58 -34 200 -115 315 -180 116 -65 251 -142 301 -171 50 -30 98 -56 107
-59 16 -7 35 3 522 280 176 100 376 212 445 250 69 38 213 119 320 180 107 62
251 143 320 180 69 37 136 76 150 85 37 26 317 180 367 202 l43 19 0 1155 0
1155 -27 15 c-158 86 -720 407 -1033 589 -226 132 -434 249 -685 385 -104 57
-237 130 -295 162 -57 32 -107 57 -110 57 -3 -1 -57 -33 -120 -71z m310 -275
c69 -36 154 -83 190 -103 36 -20 160 -90 275 -155 116 -65 278 -157 360 -205
265 -153 357 -206 510 -293 259 -147 379 -217 386 -225 11 -11 20 -1167 13
-1639 l-7 -431 -42 -16 c-23 -9 -96 -47 -161 -84 -177 -101 -756 -430 -1024
-582 -129 -74 -311 -177 -405 -231 -93 -53 -194 -111 -224 -128 l-55 -32 -67
36 c-75 39 -248 137 -539 305 -107 62 -231 133 -275 158 -44 25 -120 68 -170
97 -171 100 -650 372 -746 423 l-96 52 -7 430 c-4 236 -4 709 0 1050 l7 620
256 147 c141 80 348 198 461 261 113 62 275 153 360 201 85 48 225 125 310
171 313 168 391 211 447 245 l57 34 31 -19 c16 -11 86 -50 155 -87z"/>
<path d="M5054 8426 c-10 -7 -66 -39 -124 -71 -58 -32 -141 -79 -185 -105 -44
-26 -125 -72 -180 -103 -295 -164 -466 -259 -610 -337 -314 -171 -389 -213
-449 -250 l-61 -37 -2 -624 c-1 -343 1 -739 4 -879 l6 -255 195 -110 c213
-120 329 -187 527 -304 72 -43 171 -99 220 -126 50 -26 108 -60 130 -75 22
-15 128 -78 235 -140 107 -62 221 -128 253 -147 l57 -34 98 52 c53 28 131 73
172 99 79 49 221 132 380 220 52 30 131 75 175 100 44 26 206 118 360 205 154
86 309 174 345 195 36 21 84 47 108 59 l42 21 0 870 0 869 -42 19 c-42 18
-142 72 -543 294 -320 177 -503 280 -668 377 -87 51 -218 123 -291 161 -118
62 -134 68 -152 56z m77 -254 c41 -26 293 -171 739 -424 102 -58 205 -116 230
-128 25 -12 129 -69 232 -127 l186 -105 4 -541 c1 -298 1 -632 0 -743 l-4
-201 -46 -21 c-26 -11 -137 -73 -247 -137 -110 -64 -279 -161 -375 -215 -96
-54 -308 -174 -470 -268 -293 -168 -295 -170 -327 -156 -18 7 -117 62 -220
122 -104 60 -303 176 -443 257 -140 81 -316 182 -390 225 -74 43 -180 103
-235 132 l-100 53 -3 710 c-2 391 0 728 3 750 5 36 12 45 68 82 60 39 244 143
537 303 74 40 218 120 320 178 102 58 237 135 300 170 63 35 129 75 145 88 38
30 42 29 96 -4z"/>
<path d="M5600 7340 c-162 -26 -283 -113 -330 -236 -29 -79 -46 -252 -32 -333
15 -85 36 -124 97 -180 85 -77 144 -92 413 -99 215 -7 221 -8 246 -31 24 -23
26 -31 26 -116 0 -132 -32 -165 -162 -165 -163 0 -308 34 -447 105 -28 14 -57
25 -64 25 -8 0 -53 -52 -100 -115 l-86 -114 67 -36 c86 -46 167 -78 267 -107
71 -20 103 -22 280 -23 169 0 208 3 253 18 123 43 183 95 242 212 l32 64 -4
153 c-4 131 -7 160 -27 203 -29 65 -54 91 -121 125 -85 43 -124 50 -356 64
-187 11 -219 16 -242 33 -57 42 -64 155 -14 215 38 45 79 58 179 58 110 0 199
-19 311 -65 48 -20 94 -38 102 -41 10 -3 32 22 69 81 30 48 69 101 88 118 18
17 33 34 33 38 0 10 -162 86 -257 120 -83 30 -98 32 -248 35 -88 1 -185 -1
-215 -6z"/>
<path d="M3905 7328 c-3 -7 -4 -328 -3 -713 l3 -700 319 -3 c183 -1 344 2 375
8 75 13 209 80 264 133 25 23 70 79 100 124 74 110 79 143 75 509 -4 324 -7
340 -82 443 -63 86 -201 176 -307 200 -68 16 -738 14 -744 -1z m725 -292 c49
-26 88 -64 111 -108 17 -34 19 -61 19 -313 0 -220 -3 -282 -14 -304 -22 -42
-91 -99 -133 -110 -21 -5 -126 -11 -233 -13 l-195 -3 -3 438 -2 438 207 -3
c180 -3 213 -6 243 -22z"/>
<path d="M8243 4123 c-9 -3 -13 -30 -13 -89 0 -68 3 -84 15 -84 10 0 15 11 16
33 1 17 4 43 8 57 7 24 8 23 30 -19 22 -43 24 -44 38 -25 8 10 23 30 33 44
l19 25 1 -57 c0 -45 3 -58 15 -58 17 0 19 23 9 119 -6 51 -10 61 -26 61 -13 0
-26 -15 -42 -52 l-23 -51 -22 46 c-22 46 -36 58 -58 50z"/>
<path d="M4005 3723 c4 -104 10 -363 14 -578 l6 -390 25 -45 c33 -58 75 -80
159 -80 l64 0 -5 83 c-3 65 -9 92 -28 122 l-23 38 6 518 6 519 -116 0 -116 0
8 -187z"/>
<path d="M3666 3343 c3 -307 7 -591 10 -630 l6 -73 112 0 113 0 -4 58 c-2 31
-9 84 -16 117 -8 43 -12 208 -12 573 l1 512 -107 0 -107 0 4 -557z"/>
<path d="M7560 3260 l0 -631 108 3 107 3 5 157 5 157 38 25 c21 15 42 24 47
21 14 -9 206 -268 231 -312 l24 -43 128 0 128 0 -12 23 c-27 50 -191 274 -311
420 -30 38 -30 40 -15 72 9 18 44 65 79 105 35 39 74 88 88 108 14 20 51 63
83 96 31 32 57 63 57 67 0 8 -45 11 -202 13 -28 1 -35 -5 -61 -49 -51 -87
-267 -325 -296 -325 -11 0 -13 56 -10 358 l4 357 -112 3 -113 3 0 -631z"/>
<path d="M4634 3866 c-129 -30 -212 -93 -267 -205 -29 -60 -32 -74 -32 -161 1
-85 4 -102 32 -161 53 -115 128 -159 383 -225 74 -19 154 -44 177 -55 101 -48
89 -170 -21 -220 -102 -46 -314 -2 -435 90 -22 17 -36 22 -38 14 -2 -6 -19
-31 -36 -54 -59 -78 -77 -103 -77 -110 0 -17 151 -102 225 -126 72 -25 94 -27
230 -28 142 0 154 2 215 28 44 19 84 46 123 85 49 48 61 68 79 125 26 86 22
191 -10 252 -49 96 -122 136 -358 201 -185 51 -232 70 -263 110 -46 59 -13
171 62 205 90 40 233 21 365 -51 30 -16 60 -30 66 -30 6 0 25 24 41 52 17 28
43 66 58 84 l28 32 -33 25 c-146 108 -357 159 -514 123z"/>
<path d="M1915 3242 c3 -544 5 -607 19 -606 9 0 59 1 111 2 l95 2 0 178 c0 97
3 200 6 228 l7 52 146 -6 c80 -2 199 -1 264 3 l117 7 0 109 0 109 -265 0 -265
0 0 150 0 150 296 0 297 0 -7 31 c-3 17 -6 68 -6 114 l0 82 -410 1 -409 1 4
-607z"/>
<path d="M5338 3666 l4 -125 -58 -3 c-49 -2 -59 -6 -58 -20 0 -10 1 -54 2 -98
l2 -80 54 0 53 0 7 -46 c3 -26 6 -133 6 -239 0 -226 10 -274 71 -340 79 -85
193 -109 347 -71 59 15 72 22 67 34 -3 9 -11 52 -17 97 -6 44 -11 81 -12 82
-1 1 -24 -4 -51 -12 -74 -23 -129 -19 -162 9 l-28 24 -3 230 -3 230 129 7 130
7 -2 93 -1 92 -116 7 c-64 3 -124 3 -134 0 -16 -7 -17 2 -14 117 l4 124 -110
3 -111 3 4 -125z"/>
<path d="M6160 3554 c-101 -19 -267 -57 -274 -65 -8 -7 72 -179 93 -202 5 -5
25 3 46 17 74 51 199 70 288 45 22 -6 55 -25 74 -43 29 -27 36 -41 40 -82 l5
-50 -91 4 c-165 8 -310 -25 -374 -86 -75 -71 -107 -208 -69 -294 25 -58 85
-124 134 -149 57 -29 151 -35 241 -15 61 14 84 25 120 56 25 22 47 40 50 40 2
0 7 -23 11 -50 l7 -51 87 3 87 3 -3 320 c-1 176 -7 341 -13 367 -21 95 -108
182 -213 214 -52 15 -200 26 -246 18z m214 -540 l46 -7 0 -61 c0 -74 -16 -100
-74 -127 -56 -25 -170 -26 -209 -1 -41 28 -56 53 -57 94 0 44 41 84 98 93 20
4 44 8 52 10 28 5 97 5 144 -1z"/>
<path d="M7100 3549 c-116 -20 -243 -103 -304 -199 -80 -126 -94 -308 -35
-465 27 -72 118 -171 191 -208 134 -67 275 -74 395 -18 65 31 163 96 163 109
0 4 -29 33 -64 65 l-65 57 -33 -19 c-40 -24 -140 -51 -188 -51 -50 0 -133 42
-162 81 -35 47 -48 91 -55 185 -5 72 -3 88 16 128 63 129 206 168 365 98 l59
-26 16 22 c9 13 33 45 54 73 21 27 35 54 32 59 -10 16 -133 81 -178 95 -63 19
-145 24 -207 14z"/>
<path d="M2803 3538 c-12 -19 -5 -583 8 -648 16 -79 51 -141 108 -192 109 -98
270 -99 397 -2 17 13 34 24 37 24 4 0 7 -18 7 -39 0 -22 3 -42 8 -44 4 -3 48
0 97 6 l90 11 -3 440 c-2 242 -7 443 -12 446 -4 3 -48 4 -98 2 l-90 -3 -6
-177 c-4 -97 -6 -237 -4 -310 l3 -134 -37 -33 c-36 -33 -90 -55 -138 -55 -73
0 -146 49 -155 104 -3 17 -6 162 -8 321 l-2 290 -97 3 c-70 2 -99 -1 -105 -10z"/>
</g>
</svg>
